<?xml version="1.0" encoding="UTF-8"?>
<svg version="1.1" xmlns="http://www.w3.org/2000/svg" width="256" height="256">
<path d="M0 0 C13.30357475 11.41836609 21.44487433 28.78719003 23.42578125 46.08203125 C23.55747477 49.10659244 23.52510389 52.05269086 23.42578125 55.08203125 C22.10578125 55.41203125 20.78578125 55.74203125 19.42578125 56.08203125 C18.39344999 52.98503748 17.36232848 49.88799452 16.34765625 46.78515625 C12.20717519 34.58453874 7.46887449 24.28180986 -4.07421875 17.64453125 C-9.5956257 16.40221469 -13.73234091 16.26543073 -18.69921875 19.01953125 C-25.10783089 23.44752901 -29.22352601 30.6792603 -31.09375 38.16015625 C-33.18415694 53.65703971 -27.17354338 70.77480487 -20.953125 84.79296875 C-19.76093733 87.63665719 -19.02321779 90.06269709 -18.51171875 93.08203125 C-18.02453221 95.90307333 -17.4465613 98.4708505 -16.55078125 101.19921875 C-13.41818334 111.99203165 -13.60565486 125.97394381 -18.94921875 135.89453125 C-20.68277888 138.59474734 -22.31026892 140.81808142 -24.57421875 143.08203125 C-25.39360567 145.27281312 -26.15634687 147.48498781 -26.88671875 149.70703125 C-28.55419791 154.61423754 -30.46524886 158.87213216 -33.37890625 163.16015625 C-37.14066179 169.20846907 -39.04222214 176.1880465 -40.57421875 183.08203125 C-41.89421875 183.08203125 -43.21421875 183.08203125 -44.57421875 183.08203125 C-48.78809993 169.12354984 -46.17270014 154.66287963 -41.57421875 141.08203125 C-36.90396414 144.23760869 -35.45077644 146.94618915 -33.57421875 152.08203125 C-33.24421875 152.08203125 -32.91421875 152.08203125 -32.57421875 152.08203125 C-30.2679383 142.66635252 -30.2679383 142.66635252 -30.57421875 133.08203125 C-31.89438665 131.43889371 -31.89438665 131.43889371 -33.57421875 130.08203125 C-35.2800845 128.45550809 -36.95197335 126.79196559 -38.57421875 125.08203125 C-38.57421875 124.42203125 -38.57421875 123.76203125 -38.57421875 123.08203125 C-33.82421875 123.83203125 -33.82421875 123.83203125 -31.57421875 126.08203125 C-32.23421875 123.11203125 -32.89421875 120.14203125 -33.57421875 117.08203125 C-34.23421875 117.08203125 -34.89421875 117.08203125 -35.57421875 117.08203125 C-35.57421875 116.42203125 -35.57421875 115.76203125 -35.57421875 115.08203125 C-29.94406332 116.10907059 -26.15715701 120.14165532 -22.63671875 124.45703125 C-22.28609375 124.99328125 -21.93546875 125.52953125 -21.57421875 126.08203125 C-19.37625003 116.191172 -20.1717819 106.57139642 -23.57421875 97.08203125 C-23.80109375 96.3859375 -24.02796875 95.68984375 -24.26171875 94.97265625 C-26.29472033 92.04416587 -28.97021016 91.22493692 -32.19921875 89.83203125 C-33.38773438 89.31125 -34.57625 88.79046875 -35.80078125 88.25390625 C-36.71601563 87.8671875 -37.63125 87.48046875 -38.57421875 87.08203125 C-38.57421875 88.73203125 -38.57421875 90.38203125 -38.57421875 92.08203125 C-37.68734375 92.14390625 -36.80046875 92.20578125 -35.88671875 92.26953125 C-31.80227289 93.27137646 -30.22708275 94.88298936 -27.57421875 98.08203125 C-27.57421875 98.74203125 -27.57421875 99.40203125 -27.57421875 100.08203125 C-28.21359375 99.81390625 -28.85296875 99.54578125 -29.51171875 99.26953125 C-31.02765625 98.68171875 -31.02765625 98.68171875 -32.57421875 98.08203125 C-33.24066406 97.78296875 -33.90710938 97.48390625 -34.59375 97.17578125 C-40.06781701 94.95164194 -42.95250596 95.11752925 -48.38671875 97.296875 C-54.006116 99.31383723 -59.42376251 98.2522218 -64.81640625 96 C-68.74929205 93.94615964 -70.85645419 91.09014856 -72.57421875 87.08203125 C-75.20220977 88.94705713 -76.43787626 90.38613916 -77.0625 93.57421875 C-77.30015448 96.07845845 -77.47828515 98.56857104 -77.57421875 101.08203125 C-77.16171875 100.58703125 -76.74921875 100.09203125 -76.32421875 99.58203125 C-74.57421875 98.08203125 -74.57421875 98.08203125 -70.57421875 98.08203125 C-71.12907812 101.65008525 -72.24207256 102.9681894 -75.07421875 105.14453125 C-77.74074641 107.20453315 -78.47055309 107.77103427 -79.57421875 111.08203125 C-80.05083226 118.98494828 -79.51363358 126.41095293 -77.57421875 134.08203125 C-77.16171875 133.36917969 -76.74921875 132.65632812 -76.32421875 131.921875 C-72.54199448 125.64912359 -68.72321634 120.22376985 -62.57421875 116.08203125 C-61.91421875 116.08203125 -61.25421875 116.08203125 -60.57421875 116.08203125 C-60.21180561 120.39243436 -61.15875402 122.56248847 -63.51171875 126.14453125 C-67.36085982 132.0501874 -67.7185205 135.4387817 -67.19921875 142.51953125 C-67.10898438 143.81761719 -67.01875 145.11570313 -66.92578125 146.453125 C-66.63982405 149.40483876 -66.23058733 152.19512198 -65.57421875 155.08203125 C-64.91421875 155.08203125 -64.25421875 155.08203125 -63.57421875 155.08203125 C-63.47109375 154.19515625 -63.36796875 153.30828125 -63.26171875 152.39453125 C-62.55325388 148.98101869 -61.68539177 146.84279597 -59.57421875 144.08203125 C-58.58421875 144.08203125 -57.59421875 144.08203125 -56.57421875 144.08203125 C-56.5484375 145.29117188 -56.52265625 146.5003125 -56.49609375 147.74609375 C-56.51416091 164.34081268 -56.51416091 164.34081268 -49.94140625 178.83203125 C-49.49023438 179.24453125 -49.0390625 179.65703125 -48.57421875 180.08203125 C-48.57421875 180.74203125 -48.57421875 181.40203125 -48.57421875 182.08203125 C-51.49948669 180.77070424 -53.40417031 179.42568356 -55.57421875 177.08203125 C-56.36699219 176.35886719 -57.15976563 175.63570312 -57.9765625 174.890625 C-60.77439221 171.8656031 -62.10831919 169.23867774 -63.69921875 165.45703125 C-65.31614638 161.63758599 -66.57093596 158.91252243 -69.57421875 156.08203125 C-71.70140206 151.89769535 -73.01784909 147.81408823 -72.57421875 143.08203125 C-74.22421875 143.41203125 -75.87421875 143.74203125 -77.57421875 144.08203125 C-84.32731179 138.05900232 -85.13111973 129.32009486 -85.74267578 120.71044922 C-86.19969532 111.13598542 -86.00314007 102.1645907 -82.57421875 93.08203125 C-84.22421875 93.08203125 -85.87421875 93.08203125 -87.57421875 93.08203125 C-88.84453335 89.27108746 -88.07127352 88.01946485 -86.6953125 84.2890625 C-86.05928101 82.52550415 -86.05928101 82.52550415 -85.41040039 80.72631836 C-85.18192413 80.10191864 -84.95344788 79.47751892 -84.7180481 78.834198 C-78.16226988 60.83122944 -73.17435014 42.79468946 -70.61328125 23.7746582 C-69.05320371 12.60977973 -65.59556144 2.76533531 -56.61328125 -4.53515625 C-38.73038869 -16.66263511 -16.2437906 -12.67062682 0 0 Z M-66.57421875 84.08203125 C-67.07464021 86.99741154 -67.07464021 86.99741154 -66.57421875 90.08203125 C-62.93762089 92.91196558 -60.12478362 93.491857 -55.57421875 93.45703125 C-54.56359375 93.46476562 -53.55296875 93.4725 -52.51171875 93.48046875 C-49.16885004 93.02704773 -47.28271459 92.0618698 -44.57421875 90.08203125 C-43.24628269 88.0150247 -43.24628269 88.0150247 -42.57421875 86.08203125 C-46.58712305 81.6232487 -49.52496678 80.2446703 -55.51171875 79.76953125 C-59.69530195 79.86461269 -63.53459227 81.04240477 -66.57421875 84.08203125 Z M-79.57421875 102.08203125 C-78.57421875 104.08203125 -78.57421875 104.08203125 -78.57421875 104.08203125 Z " fill="#030202" transform="translate(172.57421875,40.91796875)"/>
<path d="M0 0 C0.95261719 0.65613281 1.90523437 1.31226562 2.88671875 1.98828125 C21.16703938 15.0593079 33.84005666 31.61156792 43 52 C43.48339844 53.06734375 43.96679688 54.1346875 44.46484375 55.234375 C56.11316949 83.13370838 55.14330175 115.49845137 44.015625 143.34765625 C39.03689623 155.17336458 32.53635465 165.40791245 24 175 C23.24976563 175.88171875 22.49953125 176.7634375 21.7265625 177.671875 C17.71909378 182.33037654 17.71909378 182.33037654 16 184 C15.34 184 14.68 184 14 184 C14 184.66 14 185.32 14 186 C12.07767098 187.67525852 10.15956954 189.2214637 8.125 190.75 C7.53291748 191.19883545 6.94083496 191.6476709 6.33081055 192.11010742 C1.42212655 195.78153046 -3.61451534 199.06407076 -9 202 C-9.77472656 202.42796875 -10.54945313 202.8559375 -11.34765625 203.296875 C-38.0348475 217.35646844 -70.91263191 219.62156797 -99.72070312 211.0925293 C-111.54581126 207.36046321 -121.93691885 202.31597566 -132 195 C-132.7321875 194.49210938 -133.464375 193.98421875 -134.21875 193.4609375 C-160.0028311 174.70013222 -175.6635885 147.12673469 -181.54199219 116.14331055 C-183.79541108 100.67808227 -183.1867339 83.06885197 -179 68 C-178.67128906 66.78183594 -178.34257812 65.56367187 -178.00390625 64.30859375 C-169.67940991 36.68509205 -149.35871341 9.88510771 -123.88525391 -4.01464844 C-85.49261461 -24.08104215 -36.39901768 -25.84703306 0 0 Z M-128 9 C-128 9.66 -128 10.32 -128 11 C-128.99 11 -129.98 11 -131 11 C-131 11.66 -131 12.32 -131 13 C-131.78375 13.2475 -132.5675 13.495 -133.375 13.75 C-136.43941457 15.20924503 -136.61725761 16.05014956 -138 19 C-138.59425781 19.28488281 -139.18851563 19.56976563 -139.80078125 19.86328125 C-153.90872859 27.15531087 -164.52746895 50.567206 -169.25585938 64.84204102 C-178.12211418 93.60391504 -174.96906285 124.44806607 -161.0625 151 C-158.29026044 156.10717747 -155.16759417 160.79888699 -151.4453125 165.265625 C-150 167 -150 167 -148 170 C-147.34 170 -146.68 170 -146 170 C-145.73469482 170.59031006 -145.46938965 171.18062012 -145.19604492 171.78881836 C-135.81290984 189.13583907 -109.98928253 198.88226939 -92.28515625 204.2109375 C-62.86086614 211.27836509 -34.48147375 206.66503573 -8.2578125 192.0390625 C17.61301169 175.84653225 34.29156228 151.56239374 41.96875 122.30859375 C48.17176007 94.30889553 43.22229384 64.29202292 28 40 C23.1160895 32.59808719 17.32639231 26.06918997 11.125 19.75 C10.57755127 19.18845215 10.03010254 18.6269043 9.46606445 18.04833984 C6.71355287 15.32935924 4.79708801 13.71927667 1 13 C1 12.34 1 11.68 1 11 C-1.32152745 9.30385117 -3.62292142 7.76058706 -6.0625 6.25 C-6.78550293 5.80188965 -7.50850586 5.3537793 -8.25341797 4.89208984 C-42.71227655 -15.89726289 -95.6253419 -17.91825505 -128 9 Z " fill="#090809" transform="translate(195,29)"/>
<path d="M0 0 C1.33332095 2.6666419 0.67102033 4.16680303 0 7 C-0.66 6.34 -1.32 5.68 -2 5 C-4.62799102 6.86502588 -5.86365751 8.30410791 -6.48828125 11.4921875 C-6.72593573 13.9964272 -6.9040664 16.48653979 -7 19 C-6.5875 18.505 -6.175 18.01 -5.75 17.5 C-4 16 -4 16 0 16 C-0.55485937 19.568054 -1.66785381 20.88615815 -4.5 23.0625 C-7.16652766 25.1225019 -7.89633434 25.68900302 -9 29 C-9.47661351 36.90291703 -8.93941483 44.32892168 -7 52 C-6.5875 51.28714844 -6.175 50.57429688 -5.75 49.83984375 C-1.96777573 43.56709234 1.85100241 38.1417386 8 34 C8.66 34 9.32 34 10 34 C10.36241314 38.31040311 9.41546473 40.48045722 7.0625 44.0625 C3.21335893 49.96815615 2.85569825 53.35675045 3.375 60.4375 C3.46523437 61.73558594 3.55546875 63.03367188 3.6484375 64.37109375 C3.9343947 67.32280751 4.34363142 70.11309073 5 73 C5.66 73 6.32 73 7 73 C7.103125 72.113125 7.20625 71.22625 7.3125 70.3125 C8.02096487 66.89898744 8.88882698 64.76076472 11 62 C11.99 62 12.98 62 14 62 C14.02578125 63.20914063 14.0515625 64.41828125 14.078125 65.6640625 C14.06005784 82.25878143 14.06005784 82.25878143 20.6328125 96.75 C21.08398438 97.1625 21.53515625 97.575 22 98 C22 98.66 22 99.32 22 100 C19.07473206 98.68867299 17.17004844 97.34365231 15 95 C14.20722656 94.27683594 13.41445312 93.55367188 12.59765625 92.80859375 C9.79982654 89.78357185 8.46589956 87.15664649 6.875 83.375 C5.25807237 79.55555474 4.00328279 76.83049118 1 74 C-1.12718331 69.8156641 -2.44363034 65.73205698 -2 61 C-4.475 61.495 -4.475 61.495 -7 62 C-13.75309304 55.97697107 -14.55690098 47.23806361 -15.16845703 38.62841797 C-15.62547657 29.05395417 -15.42892132 20.08255945 -12 11 C-13.65 11 -15.3 11 -17 11 C-15.68 10.67 -14.36 10.34 -13 10 C-13 9.34 -13 8.68 -13 8 C-11.3203125 6.78125 -11.3203125 6.78125 -9.125 5.5 C-6.74637514 4.10181191 -4.96207916 2.96207916 -3 1 C-2.01 0.67 -1.02 0.34 0 0 Z M-9 20 C-8 22 -8 22 -8 22 Z " fill="#080508" transform="translate(102,123)"/>
<path d="M0 0 C4.20346358 3.79336957 6.67156656 7.54672473 9.125 12.625 C9.47119385 13.32995605 9.8173877 14.03491211 10.17407227 14.76123047 C12.84778599 20.35571695 14.77355679 25.91007511 16 32 C16.226875 33.03125 16.45375 34.0625 16.6875 35.125 C17.11838761 39.08916605 17.0796606 43.0169701 17 47 C15.02 47.495 15.02 47.495 13 48 C11.96766874 44.90300623 10.93654723 41.80596327 9.921875 38.703125 C6.0034052 27.15670067 1.79362744 18.50679057 -8 11 C-7.34 10.67 -6.68 10.34 -6 10 C-6 9.34 -6 8.68 -6 8 C-5.401875 8.185625 -4.80375 8.37125 -4.1875 8.5625 C-1.83591238 9.22093687 -1.83591238 9.22093687 1 8 C1.66 8.33 2.32 8.66 3 9 C2.30058404 5.85262818 1.23921302 2.97411124 0 0 Z " fill="#0D0B0D" transform="translate(179,49)"/>
<path d="M0 0 C4.79549323 0.90640092 7.7388659 3.47168865 11 7 C12.4801123 9.373197 13.17729547 11.27479123 14 14 C13.67 14.99 13.34 15.98 13 17 C12.34 16.67 11.68 16.34 11 16 C11.10699219 16.71285156 11.21398437 17.42570312 11.32421875 18.16015625 C12.11568513 24.48337692 12.11220299 28.39803461 9 34 C8.34 33.67 7.68 33.34 7 33 C7.165 32.030625 7.33 31.06125 7.5 30.0625 C8.13396273 25.70512237 8.0896672 21.39369296 8 17 C7.67 18.98 7.34 20.96 7 23 C6.67 23 6.34 23 6 23 C5.896875 22.236875 5.79375 21.47375 5.6875 20.6875 C4.91596219 17.67148855 4.3128478 16.98244097 2 15 C0.29413425 13.37347684 -1.3777546 11.70993434 -3 10 C-3 9.34 -3 8.68 -3 8 C1.75 8.75 1.75 8.75 4 11 C3.34 8.03 2.68 5.06 2 2 C1.34 2 0.68 2 0 2 C0 1.34 0 0.68 0 0 Z " fill="#110C0E" transform="translate(137,156)"/>
<path d="M0 0 C0.99 0 1.98 0 3 0 C4.29246777 3.91663415 3.28231737 5.87013944 1.74755859 9.63671875 C0.32271356 14.1411276 0.42021328 18.80985625 0.3125 23.5 C0.27833984 24.51320312 0.24417969 25.52640625 0.20898438 26.5703125 C0.12721474 29.04676417 0.0578375 31.52289349 0 34 C-0.99 34.495 -0.99 34.495 -2 35 C-6.23912457 24.75544897 -6.30290225 14.41895433 -2.8515625 3.890625 C-2 2 -2 2 0 0 Z " fill="#160D14" transform="translate(124,176)"/>
<path d="M0 0 C0.66 0.33 1.32 0.66 2 1 C1.01 2.485 1.01 2.485 0 4 C0 4.66 0 5.32 0 6 C2.64 6 5.28 6 8 6 C6.62048282 8.75903437 5.17759337 8.83859851 2.3125 9.875 C-1.92865313 11.49357494 -5.35469766 13.31398775 -9 16 C-9.66 15.67 -10.32 15.34 -11 15 C-10.67 14.01 -10.34 13.02 -10 12 C-11.32 11.34 -12.64 10.68 -14 10 C-16.64 11.98 -19.28 13.96 -22 16 C-22.66 15.67 -23.32 15.34 -24 15 C-18.73486872 10.43403249 -13.17938033 6.79556549 -7.0625 3.5 C-6.39984131 3.13777344 -5.73718262 2.77554687 -5.05444336 2.40234375 C-3.40336231 1.53413771 -1.70430901 0.75840698 0 0 Z " fill="#171518" transform="translate(81,20)"/>
<path d="M0 0 C0.66 0 1.32 0 2 0 C2.33 1.65 2.66 3.3 3 5 C3.4125 4.505 3.825 4.01 4.25 3.5 C6 2 6 2 10 2 C9.44514063 5.568054 8.33214619 6.88615815 5.5 9.0625 C2.83347234 11.1225019 2.10366566 11.68900302 1 15 C0.40915611 22.89685586 1.14473198 29.9443058 3.34375 37.5390625 C4 40 4 40 4 43 C3.34 43 2.68 43 2 43 C1.516941 41.60550891 1.03874483 40.20933293 0.5625 38.8125 C0.16224609 37.64654297 0.16224609 37.64654297 -0.24609375 36.45703125 C-1.83960808 31.2636607 -2.19233958 26.35238292 -2.1875 20.9375 C-2.18814453 20.19250244 -2.18878906 19.44750488 -2.18945312 18.67993164 C-2.12935705 12.31999095 -1.34255083 6.22128466 0 0 Z M1 6 C2 8 2 8 2 8 Z " fill="#2C272C" transform="translate(92,137)"/>
<path d="M0 0 C0.33 0 0.66 0 1 0 C1.03867188 1.81371094 1.03867188 1.81371094 1.078125 3.6640625 C1.06005784 20.25878143 1.06005784 20.25878143 7.6328125 34.75 C8.30957031 35.36875 8.30957031 35.36875 9 36 C9 36.66 9 37.32 9 38 C6.07473206 36.68867299 4.17004844 35.34365231 2 33 C1.154375 32.21625 0.30875 31.4325 -0.5625 30.625 C-2.92037814 28.08574662 -3.97353618 26.26602124 -5 23 C-3.68 22.67 -2.36 22.34 -1 22 C-1.00523682 21.44014404 -1.01047363 20.88028809 -1.01586914 20.3034668 C-1.03666691 17.76482263 -1.04966904 15.22619641 -1.0625 12.6875 C-1.07087891 11.80642578 -1.07925781 10.92535156 -1.08789062 10.01757812 C-1.09111328 9.17001953 -1.09433594 8.32246094 -1.09765625 7.44921875 C-1.10289307 6.66893311 -1.10812988 5.88864746 -1.11352539 5.0847168 C-1 3 -1 3 0 0 Z " fill="#191216" transform="translate(115,185)"/>
<path d="M0 0 C1.33332095 2.6666419 0.67102033 4.16680303 0 7 C-0.66 6.34 -1.32 5.68 -2 5 C-5.2542015 7.83430453 -6.5206753 9.68607774 -7 14 C-7.99 14 -8.98 14 -10 14 C-10.33 17.96 -10.66 21.92 -11 26 C-11.66 26 -12.32 26 -13 26 C-13.66 26.66 -14.32 27.32 -15 28 C-14.22095672 16.47835991 -14.22095672 16.47835991 -12 11 C-13.65 11 -15.3 11 -17 11 C-15.68 10.67 -14.36 10.34 -13 10 C-13 9.34 -13 8.68 -13 8 C-11.3203125 6.78125 -11.3203125 6.78125 -9.125 5.5 C-6.74637514 4.10181191 -4.96207916 2.96207916 -3 1 C-2.01 0.67 -1.02 0.34 0 0 Z " fill="#141213" transform="translate(102,123)"/>
<path d="M0 0 C-1.08268707 3.03152378 -2.00967069 4.00637386 -4.75 5.8125 C-8.13838855 8.09314614 -10.15736528 10.39918973 -12.60546875 13.609375 C-14 15 -14 15 -17 15 C-16.86120444 9.44817757 -14.47624446 6.59626964 -10.83984375 2.70703125 C-7.34172662 -0.53856787 -4.547178 -1.68414 0 0 Z " fill="#241E28" transform="translate(113,152)"/>
<path d="M0 0 C1.32 0.66 2.64 1.32 4 2 C3.01 2.495 3.01 2.495 2 3 C2 4.65 2 6.3 2 8 C3.3303125 8.0928125 3.3303125 8.0928125 4.6875 8.1875 C8.77194586 9.18934521 10.347136 10.80095811 13 14 C13 14.66 13 15.32 13 16 C12.360625 15.731875 11.72125 15.46375 11.0625 15.1875 C9.5465625 14.5996875 9.5465625 14.5996875 8 14 C7.33355469 13.7009375 6.66710937 13.401875 5.98046875 13.09375 C0.50863323 10.87051735 -2.47721257 10.99459253 -7.9140625 13.2265625 C-10.65806793 14.24400271 -13.10552078 14.22265225 -16 14 C-15.34 13.67 -14.68 13.34 -14 13 C-14 11.68 -14 10.36 -14 9 C-12.68 9.33 -11.36 9.66 -10 10 C-10.99 10 -11.98 10 -13 10 C-12.34 10.66 -11.68 11.32 -11 12 C-4.52539952 9.91458065 -4.52539952 9.91458065 -0.4375 4.875 C0.05014733 2.15514331 0.05014733 2.15514331 0 0 Z " fill="#141115" transform="translate(132,125)"/>
<path d="M0 0 C0.66 0 1.32 0 2 0 C2.144375 0.928125 2.28875 1.85625 2.4375 2.8125 C2.92100111 6.00725111 2.92100111 6.00725111 4 9 C2.93430618 11.3317497 1.83522353 13.47521409 0.5625 15.6875 C0.22412109 16.29400391 -0.11425781 16.90050781 -0.46289062 17.52539062 C-1.29957915 19.0220025 -2.14862831 20.51169189 -3 22 C-3.66 22 -4.32 22 -5 22 C-5 18.7 -5 15.4 -5 12 C-4.34 12 -3.68 12 -3 12 C-2.80083984 10.82630859 -2.80083984 10.82630859 -2.59765625 9.62890625 C-2.42105469 8.61699219 -2.24445313 7.60507813 -2.0625 6.5625 C-1.88847656 5.55316406 -1.71445313 4.54382813 -1.53515625 3.50390625 C-1 1 -1 1 0 0 Z " fill="#040205" transform="translate(153,160)"/>
<path d="M0 0 C0.92941406 -0.00515625 1.85882813 -0.0103125 2.81640625 -0.015625 C5.4929462 0.25561899 7.14188282 0.88883405 9.4375 2.25 C8.4475 2.745 8.4475 2.745 7.4375 3.25 C6.4475 2.92 5.4575 2.59 4.4375 2.25 C-1.34179821 1.66227476 -4.86284593 2.23581973 -9.671875 5.55859375 C-15.84351051 11.0799123 -19.19131899 18.54724459 -20.6875 26.5625 C-20.85507813 27.44550781 -21.02265625 28.32851562 -21.1953125 29.23828125 C-21.31648437 29.90214844 -21.43765625 30.56601563 -21.5625 31.25 C-21.8925 31.25 -22.2225 31.25 -22.5625 31.25 C-22.88610628 22.02722096 -20.60769027 14.06480511 -15.5625 6.25 C-14.5725 5.92 -13.5825 5.59 -12.5625 5.25 C-11.9025 4.26 -11.2425 3.27 -10.5625 2.25 C-6.98433318 0.40874777 -3.99621683 -0.02223208 0 0 Z " fill="#161317" transform="translate(161.5625,55.75)"/>
<path d="M0 0 C0.66 0.66 1.32 1.32 2 2 C1.65066406 2.60328125 1.30132812 3.2065625 0.94140625 3.828125 C0.48636719 4.62734375 0.03132813 5.4265625 -0.4375 6.25 C-0.88996094 7.03890625 -1.34242187 7.8278125 -1.80859375 8.640625 C-4.2227218 13.42139006 -4.12302522 17.97965036 -4.0625 23.25 C-4.05798828 23.99507812 -4.05347656 24.74015625 -4.04882812 25.5078125 C-4.03709246 27.3385764 -4.0191585 29.16929873 -4 31 C-5.32 30.34 -6.64 29.68 -8 29 C-7.34 28.67 -6.68 28.34 -6 28 C-6.165 27.360625 -6.33 26.72125 -6.5 26.0625 C-7.8755159 17.63746512 -6.78986916 10.7318401 -3 3 C-1.36328125 1.1796875 -1.36328125 1.1796875 0 0 Z " fill="#252124" transform="translate(109,161)"/>
<path d="M0 0 C0.66 0 1.32 0 2 0 C1.79141357 0.58700684 1.58282715 1.17401367 1.36791992 1.77880859 C-0.84148935 8.45999945 -1.52372902 14.61560207 -1.6875 21.625 C-1.72166016 22.62917969 -1.75582031 23.63335937 -1.79101562 24.66796875 C-1.87247891 27.11186718 -1.94194922 29.55545281 -2 32 C-2.99 32.495 -2.99 32.495 -4 33 C-7.0833315 23.7500055 -5.0013883 10.07403991 -0.83984375 1.484375 C-0.56269531 0.99453125 -0.28554687 0.5046875 0 0 Z " fill="#40383F" transform="translate(126,178)"/>
<path d="M0 0 C1.65 0.33 3.3 0.66 5 1 C4.49111733 5.41031645 1.96550928 7.89327599 -1 11 C-1.99 11 -2.98 11 -4 11 C-3.125 4.25 -3.125 4.25 -2 2 C-1.34 2 -0.68 2 0 2 C0 1.34 0 0.68 0 0 Z " fill="#201A24" transform="translate(98,149)"/>
<path d="M0 0 C3.59905908 0.55550695 4.99909799 1.74887248 7.25 4.5625 C8.03117188 5.52349609 8.03117188 5.52349609 8.828125 6.50390625 C9.21484375 6.99761719 9.6015625 7.49132812 10 8 C9.34 9.32 8.68 10.64 8 12 C7.34 12 6.68 12 6 12 C5.32845067 10.71086513 4.66291141 9.41859796 4 8.125 C3.62875 7.40570313 3.2575 6.68640625 2.875 5.9453125 C2 4 2 4 2 2 C1.34 2 0.68 2 0 2 C0 1.34 0 0.68 0 0 Z " fill="#09060A" transform="translate(137,156)"/>
<path d="M0 0 C4.8 3.32307692 4.8 3.32307692 5.8125 6.75 C5.874375 7.4925 5.93625 8.235 6 9 C3.36 9 0.72 9 -2 9 C-1.34 6.03 -0.68 3.06 0 0 Z " fill="#0F0C11" transform="translate(131,182)"/>
<path d="M0 0 C0.66 0.33 1.32 0.66 2 1 C1.49259538 5.39750672 -1.08293314 7.86948922 -4 11 C-4.66 11 -5.32 11 -6 11 C-6.40060526 7.49470398 -6.15413141 6.2260594 -4.125 3.25 C-2 1 -2 1 0 0 Z " fill="#201B22" transform="translate(113,175)"/>
<path d="M0 0 C0.99 0.495 0.99 0.495 2 1 C2.99 1.33 3.98 1.66 5 2 C5 5.63 5 9.26 5 13 C4.01 13 3.02 13 2 13 C1.66127487 11.58461283 1.32925376 10.16762037 1 8.75 C0.814375 7.96109375 0.62875 7.1721875 0.4375 6.359375 C0 4 0 4 0 0 Z " fill="#070405" transform="translate(189,83)"/>
<path d="M0 0 C4.08237973 0.09071955 5.73002661 0.77110952 8.875 3.4375 C11 6 11 6 11 8 C6.50202887 6.31326082 2.27113698 4.18326108 -2 2 C-1.34 1.34 -0.68 0.68 0 0 Z " fill="#100D14" transform="translate(134,133)"/>
<path d="M0 0 C5.75 3.625 5.75 3.625 8 7 C7.625 9.1875 7.625 9.1875 7 11 C5.88625 9.8553125 5.88625 9.8553125 4.75 8.6875 C2.176446 6.04428801 2.176446 6.04428801 -0.3125 4.3125 C-0.869375 3.879375 -1.42625 3.44625 -2 3 C-2 2.34 -2 1.68 -2 1 C-1.34 0.67 -0.68 0.34 0 0 Z " fill="#110D13" transform="translate(143,149)"/>
<path d="M0 0 C1.485 0.99 1.485 0.99 3 2 C5.11280345 2.63292383 5.11280345 2.63292383 7 3 C5.8141763 6.37503669 4.72426311 8.64722731 2 11 C0.19769832 7.17010894 -0.19622241 4.21878192 0 0 Z " fill="#150F15" transform="translate(137,191)"/>
<path d="M0 0 C0 0.66 0 1.32 0 2 C-1.8253125 2.309375 -1.8253125 2.309375 -3.6875 2.625 C-8.50473321 3.78866557 -10.22220672 6.00692215 -13 10 C-13.33 8.68 -13.66 7.36 -14 6 C-12.90081184 5.01524786 -11.7954398 4.03739527 -10.6875 3.0625 C-10.07261719 2.51722656 -9.45773438 1.97195312 -8.82421875 1.41015625 C-5.67111581 -1.02725309 -3.66326916 -1.13687664 0 0 Z " fill="#0A070E" transform="translate(113,152)"/>
<path d="M0 0 C-0.54074373 3.78520613 -2.07572746 5.59177555 -5 8 C-5.99 8 -6.98 8 -8 8 C-7.63487253 5.2980567 -7.30130763 3.41609148 -5.6875 1.1875 C-4 0 -4 0 0 0 Z " fill="#18161B" transform="translate(102,139)"/>
<path d="M0 0 C0.33 0.66 0.66 1.32 1 2 C1.66 2.33 2.32 2.66 3 3 C2.01 3.33 1.02 3.66 0 4 C-1.71289005 5.72765164 -1.71289005 5.72765164 -3.375 7.8125 C-6.02361939 10.94473143 -8.66539533 13.57483296 -12 16 C-10.57139081 11.50891248 -8.06922708 8.53830684 -4.875 5.1875 C-4.40707031 4.68541016 -3.93914063 4.18332031 -3.45703125 3.66601562 C-2.31098175 2.43810545 -1.15634689 1.21821785 0 0 Z " fill="#151314" transform="translate(46,45)"/>
<path d="M0 0 C0 4.02301077 -1.32422888 5.04256877 -4 8 C-7.3415706 11.27748568 -10.18809195 13.57541988 -15 14 C-10.2347969 9.0759568 -5.11342667 4.55740358 0 0 Z " fill="#191718" transform="translate(208,203)"/>
<path d="M0 0 C3.12896573 3.12896573 2.73776171 6.65237472 3.046875 10.93359375 C2.98401955 15.04538756 2.01288294 17.45732603 0 21 C-0.66 20.67 -1.32 20.34 -2 20 C-1.855625 19.113125 -1.71125 18.22625 -1.5625 17.3125 C-0.73256094 11.57406419 -0.40854359 5.78045724 0 0 Z " fill="#201C1F" transform="translate(146,169)"/>
<path d="M0 0 C0.66 0 1.32 0 2 0 C4.37590142 3.70416126 4.20500286 6.92984573 4.125 11.25 C4.10695313 12.51328125 4.08890625 13.7765625 4.0703125 15.078125 C4.04710938 16.04234375 4.02390625 17.0065625 4 18 C3.01 18 2.02 18 1 18 C1.01160156 16.95199219 1.02320312 15.90398437 1.03515625 14.82421875 C1.04453655 13.44531428 1.0536365 12.06640789 1.0625 10.6875 C1.07087891 9.99720703 1.07925781 9.30691406 1.08789062 8.59570312 C1.10307906 5.4516975 1.00193327 3.00579981 0 0 Z " fill="#060204" transform="translate(99,171)"/>
<path d="M0 0 C2.64824722 0.35787125 4.55535876 0.68239911 6.75 2.25 C8.35866941 4.50213717 8.78857741 6.25150639 9 9 C8.34 9.66 7.68 10.32 7 11 C6.54625 10.030625 6.0925 9.06125 5.625 8.0625 C4.34213779 4.92920418 4.34213779 4.92920418 2 4 C2 3.34 2 2.68 2 2 C1.34 2 0.68 2 0 2 C0 1.34 0 0.68 0 0 Z " fill="#1F181E" transform="translate(132,176)"/>
<path d="M0 0 C1.32 0 2.64 0 4 0 C4.99 2.97 5.98 5.94 7 9 C4 9 4 9 2.375 7.875 C0.52617065 5.35386907 0.34072203 3.06649825 0 0 Z " fill="#191217" transform="translate(102,191)"/>
<path d="M0 0 C3.875 1.75 3.875 1.75 5 4 C4.01 5.485 4.01 5.485 3 7 C1.68 7 0.36 7 -1 7 C-1.66 5.68 -2.32 4.36 -3 3 C-2.01 2.01 -1.02 1.02 0 0 Z " fill="#050204" transform="translate(67,29)"/>
<path d="M0 0 C0.33 0 0.66 0 1 0 C1 5.94 1 11.88 1 18 C0.34 18.33 -0.32 18.66 -1 19 C-1 16.69 -1 14.38 -1 12 C-1.66 12 -2.32 12 -3 12 C-3 10.02 -3 8.04 -3 6 C-2.01 7.485 -2.01 7.485 -1 9 C-0.67 6.03 -0.34 3.06 0 0 Z " fill="#151115" transform="translate(156,148)"/>
<path d="M0 0 C-0.0625 1.75 -0.0625 1.75 -1 4 C-3.24164322 5.59501537 -5.53566643 6.74543018 -8 8 C-7.63487253 5.2980567 -7.30130763 3.41609148 -5.6875 1.1875 C-4 0 -4 0 0 0 Z " fill="#1A161F" transform="translate(116,165)"/>
<path d="M0 0 C-0.99 2.97 -1.98 5.94 -3 9 C-3.66 8.67 -4.32 8.34 -5 8 C-5.66 8.99 -6.32 9.98 -7 11 C-5.94230769 0 -5.94230769 0 0 0 Z " fill="#181318" transform="translate(127,176)"/>
<path d="M0 0 C1.32 0.66 2.64 1.32 4 2 C3 5 3 5 0.5625 6.25 C-2 7 -2 7 -4 6 C-2.84826645 3.53199953 -1.95216435 1.95216435 0 0 Z " fill="#050304" transform="translate(196,215)"/>
<path d="M0 0 C0.33 0 0.66 0 1 0 C0.03644647 12.66970387 0.03644647 12.66970387 -1 18 C-1.33 18 -1.66 18 -2 18 C-2.25034126 15.9399629 -2.47443346 13.87672534 -2.6875 11.8125 C-2.81511719 10.66394531 -2.94273438 9.51539063 -3.07421875 8.33203125 C-2.99127165 4.60814303 -2.23546293 2.93094029 0 0 Z " fill="#050105" transform="translate(122,183)"/>
<path d="M0 0 C3.01802393 0.32627286 4.59691281 0.61081236 6.8125 2.75 C8.19608294 5.37152557 8.24360427 7.07674878 8 10 C7 9 6 8 5 7 C4.113125 6.154375 3.22625 5.30875 2.3125 4.4375 C0 2 0 2 0 0 Z " fill="#171218" transform="translate(134,164)"/>
<path d="M0 0 C0.66 0.66 1.32 1.32 2 2 C1.02526874 3.66926454 0.04510211 5.33535642 -0.9375 7 C-1.48277344 7.928125 -2.02804688 8.85625 -2.58984375 9.8125 C-3.05519531 10.534375 -3.52054687 11.25625 -4 12 C-4.33 12 -4.66 12 -5 12 C-4.58525633 6.71201818 -3.64775386 3.88309282 0 0 Z " fill="#2F2931" transform="translate(109,161)"/>
<path d="M0 0 C2.4294516 3.6441774 2.16179575 5.71241272 2 10 C1.34 10 0.68 10 0 10 C-0.66 10.66 -1.32 11.32 -2 12 C-1.85962479 10.18706911 -1.71255111 8.3746557 -1.5625 6.5625 C-1.48128906 5.55316406 -1.40007812 4.54382813 -1.31640625 3.50390625 C-1 1 -1 1 0 0 Z " fill="#0F0B0C" transform="translate(89,139)"/>
<path d="M0 0 C1.32 0.66 2.64 1.32 4 2 C3.01 2.495 3.01 2.495 2 3 C2.061875 3.763125 2.12375 4.52625 2.1875 5.3125 C2 8 2 8 0.5 9.8125 C0.005 10.204375 -0.49 10.59625 -1 11 C-1.99 10.67 -2.98 10.34 -4 10 C-3.525625 9.46375 -3.05125 8.9275 -2.5625 8.375 C-0.71813924 5.57157164 -0.37543153 3.30379742 0 0 Z " fill="#251F26" transform="translate(132,125)"/>
<path d="M0 0 C3.99012371 0.55989303 6.5255052 1.75669768 9.8125 4.0625 C10.60269531 4.61035156 11.39289063 5.15820312 12.20703125 5.72265625 C12.79871094 6.14417969 13.39039063 6.56570312 14 7 C13.01 8.485 13.01 8.485 12 10 C11.67 9.01 11.34 8.02 11 7 C10.34 6.835 9.68 6.67 9 6.5 C8.34 6.335 7.68 6.17 7 6 C6.67 5.01 6.34 4.02 6 3 C2.99152582 1.77479736 2.99152582 1.77479736 0 1 C0 0.67 0 0.34 0 0 Z " fill="#262225" transform="translate(157,33)"/>
<path d="M0 0 C4.55737263 0.43820891 7.57653445 0.85041169 11 4 C6.25 3.125 6.25 3.125 4 2 C4 2.66 4 3.32 4 4 C2.68 4.33 1.36 4.66 0 5 C0 3.35 0 1.7 0 0 Z " fill="#141112" transform="translate(79,225)"/>
<path d="M0 0 C0 0.99 0 1.98 0 3 C-3.3 4.32 -6.6 5.64 -10 7 C-10.33 6.01 -10.66 5.02 -11 4 C-9.72942818 3.52014033 -8.45853152 3.0411407 -7.1875 2.5625 C-6.47980469 2.29566406 -5.77210937 2.02882812 -5.04296875 1.75390625 C-3.37327604 1.13774814 -1.68842296 0.56280765 0 0 Z " fill="#0A070A" transform="translate(130,131)"/>
<path d="M0 0 C0.99 1.32 1.98 2.64 3 4 C2.01 5.32 1.02 6.64 0 8 C0.33 8.66 0.66 9.32 1 10 C-0.98 10.99 -0.98 10.99 -3 12 C-2.69106068 10.3743193 -2.3777305 8.74947252 -2.0625 7.125 C-1.88847656 6.22007813 -1.71445313 5.31515625 -1.53515625 4.3828125 C-1 2 -1 2 0 0 Z " fill="#181717" transform="translate(97,92)"/>
<path d="M0 0 C2 3 2 3 3 6 C3.515625 6.515625 4.03125 7.03125 4.5625 7.5625 C5.036875 8.036875 5.51125 8.51125 6 9 C6 9.66 6 10.32 6 11 C3.10144578 9.70064811 1.14336722 8.33821878 -1 6 C-1.66 5.34 -2.32 4.68 -3 4 C-2.01 4 -1.02 4 0 4 C0 2.68 0 1.36 0 0 Z " fill="#2F2A2E" transform="translate(118,212)"/>
<path d="M0 0 C0.33 0 0.66 0 1 0 C1 4.62 1 9.24 1 14 C0.01 14.495 0.01 14.495 -1 15 C-2.19126781 11.42619658 -1.7349445 9.49116698 -1.0625 5.8125 C-0.86785156 4.72582031 -0.67320313 3.63914063 -0.47265625 2.51953125 C-0.31667969 1.68808594 -0.16070312 0.85664063 0 0 Z " fill="#342D34" transform="translate(123,196)"/>
<path d="M0 0 C1.98 0.66 3.96 1.32 6 2 C6 2.99 6 3.98 6 5 C4.3125 5.6875 4.3125 5.6875 2 6 C-0.75 4.5625 -0.75 4.5625 -3 3 C-2.01 2.67 -1.02 2.34 0 2 C0 1.34 0 0.68 0 0 Z " fill="#0E0E11" transform="translate(146,129)"/>
<path d="M0 0 C2.31 0.33 4.62 0.66 7 1 C7.33 1.99 7.66 2.98 8 4 C5.03 3.67 2.06 3.34 -1 3 C-0.67 2.01 -0.34 1.02 0 0 Z " fill="#05020B" transform="translate(118,153)"/>
<path d="M0 0 C1.65 0.33 3.3 0.66 5 1 C3.72530598 3.54938804 2.50840774 3.74579613 0 5 C-1.70921589 6.5412312 -1.70921589 6.5412312 -3 8 C-2.67 6.02 -2.34 4.04 -2 2 C-1.34 2 -0.68 2 0 2 C0 1.34 0 0.68 0 0 Z " fill="#0D0A0E" transform="translate(98,149)"/>
<path d="M0 0 C0.66 0 1.32 0 2 0 C2 2.64 2 5.28 2 8 C0.35 8.33 -1.3 8.66 -3 9 C-2.34 8.67 -1.68 8.34 -1 8 C-0.53476937 6.10466658 -0.53476937 6.10466658 -0.375 3.9375 C-0.25125 2.638125 -0.1275 1.33875 0 0 Z " fill="#2F2A2C" transform="translate(98,176)"/>
<path d="M0 0 C0.33 0.66 0.66 1.32 1 2 C1.66 2.33 2.32 2.66 3 3 C2.01 3.66 1.02 4.32 0 5 C0.33 6.98 0.66 8.96 1 11 C0.34 9.68 -0.32 8.36 -1 7 C-1.66 7 -2.32 7 -3 7 C-1.125 1.125 -1.125 1.125 0 0 Z " fill="#0D0B0F" transform="translate(100,167)"/>
<path d="M0 0 C2.31 0.33 4.62 0.66 7 1 C7.33 1.99 7.66 2.98 8 4 C3.545 3.01 3.545 3.01 -1 2 C-0.67 1.34 -0.34 0.68 0 0 Z " fill="#010004" transform="translate(126,147)"/>
<path d="M0 0 C0 1.65 0 3.3 0 5 C-2.375 5.1875 -2.375 5.1875 -5 5 C-5.66 4.01 -6.32 3.02 -7 2 C-4.35261084 0.5393715 -3.10551666 0 0 0 Z " fill="#1A181B" transform="translate(125,33)"/>
<path d="M0 0 C1.32 0.66 2.64 1.32 4 2 C2.68799596 3.35432675 1.35368596 4.68733482 0 6 C-0.33 6 -0.66 6 -1 6 C-1.042721 4.33388095 -1.04063832 2.66617115 -1 1 C-0.67 0.67 -0.34 0.34 0 0 Z " fill="#1E1A1D" transform="translate(54,44)"/>
</svg>
